<svg xmlns="http://www.w3.org/2000/svg" width="32" height="32" viewBox="0 0 32 32">
  <g id="article" transform="translate(-882 -2014)">
    <rect id="Path" width="32" height="32" transform="translate(882 2014)" fill="rgba(0,0,0,0)"/>
    <path id="Icon" d="M17.5,26H2.487A2.548,2.548,0,0,1,0,23.4L.013,2.6A2.548,2.548,0,0,1,2.5,0h8.963a2.423,2.423,0,0,1,1.762.767l6.038,6.279A2.621,2.621,0,0,1,20,8.879V23.4A2.554,2.554,0,0,1,17.5,26ZM12.188.975v5.85a1.277,1.277,0,0,0,1.25,1.3h5.625Z" transform="translate(888 2017)" fill="none" stroke="#1d1d1d" stroke-linecap="round" stroke-linejoin="round" stroke-width="2.5"/>
  </g>
</svg>
